# xmcd
#
# Track frame offsets:
#	150
#	18061
#	36341
#	54172
#	71908
#	89644
#	107854
#	121595
#	141499
#	159410
#	177690
#	195521
#	213257
#	230993
#	249203
#	262944
#	294173
#
# Disc length: 4591 seconds
#
# Revision: 1
# Processed by: cddbd v1.5.2PL0 Copyright (c) Steve Scherf et al.
# Submitted via: audiograbber 1.83.01
#
DISCID=f111ed11
DTITLE=PARTY TYME KARAOKE - SYB-1086
DYEAR=2010
DGENRE=Country
TTITLE0=TAYLOR SWIFT - Our Song
TTITLE1=Kenny Chesney - Don't Blink
TTITLE2=Carrie Underwood - Last Name
TTITLE3=Alan Jackson - Good Time
TTITLE4=Taylor Swift - Should've said No
TTITLE5=Trace Atkins - You're Gonna Miss This
TTITLE6=Miranda Lambert - Gunpowder And Lead
TTITLE7=Brad Paisley - I'm Still a Guy
TTITLE8=Carrie Underwood - All-American Girl
TTITLE9=James Otto - Just Got Started Lovin' You
TTITLE10=Taylor Swift - Teardrops On My Guitar
TTITLE11=Toby Keith - She Never Cried In Front of Me
TTITLE12=Leann Rimes - Nothin' Better To do
TTITLE13=Kenny Chesney - Never Wanted Nothing More
TTITLE14=Carrie Underwood - So Small
TTITLE15=Rodney Atkins - Cleaning This Gun (come on in Boy)
TTITLE16=data track - Data Track
EXTD=
EXTT0=
EXTT1=
EXTT2=
EXTT3=
EXTT4=
EXTT5=
EXTT6=
EXTT7=
EXTT8=
EXTT9=
EXTT10=
EXTT11=
EXTT12=
EXTT13=
EXTT14=
EXTT15=
EXTT16=
PLAYORDER=
